<svg xmlns="http://www.w3.org/2000/svg" viewBox="0 0 20 20" aria-hidden="true" id="artificial-intelligence">
  <title>artificial-intelligence</title>
  <g fill="currentColor">
    <polyline points="10.5 15 7 5 6 5 2.5 15" fill="none" stroke="currentColor" stroke-linecap="round" stroke-linejoin="round" stroke-width="2"></polyline>
    <line x1="9.5857" y1="12.5" x2="3.4143" y2="12.5" fill="none" stroke="currentColor" stroke-linecap="round" stroke-linejoin="round" stroke-width="2"></line>
    <polyline points="13.5 9 15.5 9 15.5 15" fill="none" stroke="currentColor" stroke-linecap="round" stroke-linejoin="round" stroke-width="2"></polyline>
    <line x1="13.5" y1="15" x2="17.5" y2="15" fill="none" stroke="currentColor" stroke-linecap="round" stroke-linejoin="round" stroke-width="2"></line>
    <path d="m17.6527,3.9647l-1.2005-.4503-.4506-1.2005c-.1562-.4185-.8468-.4185-1.0031,0l-.4506,1.2005-1.2005.4503c-.2086.0785-.3474.2783-.3474.5015s.1388.4231.3474.5015l1.2005.4503.4506,1.2005c.0781.2093.2783.3477.5015.3477s.4234-.1385.5015-.3477l.4506-1.2005,1.2005-.4503c.2086-.0785.3474-.2783.3474-.5015s-.1388-.4231-.3474-.5015h0Z" fill="currentColor" stroke-width="0"></path>
  </g>
</svg>